<?xml version="1.0" encoding="UTF-8"?>
<svg id="Layer_2" data-name="Layer 2" xmlns="http://www.w3.org/2000/svg" viewBox="0 0 54.19 54.19">
  <defs>
    <style>
      .cls-1, .cls-2 {
        fill: #3c5ba7;
        stroke-width: 0px;
      }

      .cls-2 {
        fill-rule: evenodd;
      }
    </style>
  </defs>
  <g id="Layer_1-2" data-name="Layer 1">
    <g>
      <path class="cls-2" d="M18.9,8.74c-4.77,2.15-8.55,6.11-10.45,11.01.13,0,.27-.01.41-.02,3.84-.05,12.06,3.48,16.57,6.57l1.22.83-.59-.82c-3.27-4.56-7.12-12.93-7.18-16.88,0-.23,0-.46.02-.69ZM27.4,27.4l.79,1.1c3.2,4.46,6.94,12.49,7.26,16.67,4.46-2.05,8.03-5.7,10-10.2-4.18-.19-12.4-3.76-16.98-6.89l-1.04-.71-.02.04ZM19.24,45.38c-4.64-1.98-8.38-5.67-10.42-10.28.09,0,.18,0,.27,0,3.8-.05,11.83-3.75,16.21-6.89l1.4-1.01.13.18-.66.97c-3.13,4.59-6.71,12.8-6.93,17.03ZM28.6,26.06l-.57.41v-.02c3.22-4.7,6.91-13.27,6.85-17.26,0-.22-.01-.43-.03-.64,4.68,1.97,8.45,5.66,10.51,10.29-4.09.21-12.27,4-16.77,7.23Z"/>
      <path class="cls-1" d="M2.66,33.77C1.05,32.16.04,29.95,0,27.5c-.04-2.42.87-4.71,2.56-6.45,1.69-1.74,3.95-2.71,6.37-2.75,2.61-.04,6.37,1.32,8.38,2.13,1.99.8,3.97,1.75,5.75,2.74-1.04-1.75-2.04-3.7-2.91-5.67-.87-1.98-2.34-5.7-2.37-8.31-.04-2.42.87-4.71,2.56-6.45C22.02,1.01,24.28.04,26.7,0c2.42-.03,4.71.87,6.45,2.56,1.74,1.69,2.71,3.95,2.75,6.37.05,3.3-2.24,9.37-4.79,14.02,4.57-2.68,10.58-5.15,13.88-5.19,2.42-.03,4.71.88,6.45,2.56,1.74,1.68,2.71,3.95,2.75,6.37.04,2.42-.87,4.71-2.56,6.45-1.69,1.74-3.95,2.71-6.37,2.75-2.61.04-6.37-1.32-8.38-2.13-1.99-.8-3.97-1.75-5.75-2.74,1.04,1.75,2.04,3.7,2.91,5.67.87,1.98,2.34,5.7,2.37,8.31.04,2.42-.87,4.71-2.56,6.45-1.69,1.74-3.95,2.71-6.37,2.75-2.42.03-4.71-.88-6.45-2.56-1.74-1.68-2.71-3.95-2.75-6.37-.05-3.3,2.24-9.37,4.79-14.02-4.57,2.68-10.58,5.15-13.88,5.19-2.55.04-4.87-.99-6.54-2.66ZM26.41,27.14l-1.27-.86c-4.41-3.01-12.45-6.47-16.2-6.42-2.01.03-3.88.84-5.28,2.28-1.4,1.44-2.15,3.34-2.12,5.34.06,4.14,3.48,7.46,7.62,7.4,3.71-.05,11.56-3.66,15.84-6.74l1.4-1h0ZM27.08,27.78l-.96,1.43c-2.95,4.37-6.33,12.32-6.27,16.03.03,2.01.84,3.88,2.28,5.28,1.44,1.4,3.34,2.15,5.34,2.12,2.01-.03,3.88-.84,5.28-2.28,1.4-1.44,2.15-3.34,2.12-5.34-.06-3.75-3.75-11.68-6.89-16l-.9-1.24h0ZM32.15,3.76s-.05-.05-.08-.08c-1.44-1.4-3.34-2.15-5.34-2.12-2.01.03-3.88.84-5.28,2.28-1.4,1.44-2.15,3.34-2.12,5.34.06,3.75,3.75,11.68,6.89,16l.9,1.24.96-1.43c2.95-4.37,6.33-12.32,6.27-16.03-.03-1.97-.81-3.81-2.2-5.2h0ZM50.44,21.52s-.05-.05-.08-.08c-1.44-1.4-3.34-2.15-5.34-2.12-3.71.05-11.56,3.67-15.84,6.74l-1.4,1,1.27.86c4.41,3.01,12.45,6.47,16.2,6.42,2.01-.03,3.88-.84,5.28-2.28,1.4-1.44,2.15-3.34,2.12-5.34-.03-1.97-.81-3.81-2.2-5.2h0Z"/>
    </g>
  </g>
</svg>