<?xml version="1.0" encoding="UTF-8"?>
<svg id="Layer_2" xmlns="http://www.w3.org/2000/svg" viewBox="0 0 287.44 279.76">
  <defs>
    <style>
      .cls-1 {
        fill: #dea582;
      }
    </style>
  </defs>
  <g id="Layer_1-2" data-name="Layer_1">
    <g>
      <g>
        <path class="cls-1" d="M26.43,181.46l-5.26,3.12c-.98-1.71-1.92-2.82-2.81-3.34-.93-.59-2.12-.89-3.59-.89-1.8,0-3.29.51-4.48,1.53-1.19,1-1.78,2.26-1.78,3.78,0,2.1,1.56,3.78,4.67,5.06l4.28,1.75c3.49,1.41,6.04,3.13,7.65,5.16,1.61,2.03,2.42,4.52,2.42,7.47,0,3.95-1.32,7.21-3.95,9.79-2.65,2.6-5.94,3.89-9.88,3.89-3.73,0-6.81-1.1-9.24-3.31-2.39-2.21-3.89-5.31-4.48-9.32l6.57-1.45c.3,2.52.82,4.27,1.56,5.23,1.34,1.85,3.28,2.78,5.84,2.78,2.02,0,3.7-.68,5.03-2.03,1.34-1.35,2-3.07,2-5.15,0-.83-.12-1.6-.35-2.29-.23-.7-.59-1.34-1.08-1.92-.49-.58-1.13-1.13-1.91-1.64-.78-.51-1.71-1-2.78-1.46l-4.14-1.72c-5.88-2.49-8.82-6.12-8.82-10.9,0-3.23,1.23-5.93,3.7-8.1,2.47-2.19,5.53-3.28,9.21-3.28,4.95,0,8.82,2.41,11.6,7.23Z"/>
        <path class="cls-1" d="M55.51,191.86h18.53v-16.8h6.48v42.95h-6.48v-20.06h-18.53v20.06h-6.48v-42.95h6.48v16.8Z"/>
        <path class="cls-1" d="M129.72,207.58h-18.39l-4.78,10.43h-6.98l21.25-45.65,20.5,45.65h-7.09l-4.51-10.43ZM127.08,201.49l-6.37-14.6-6.68,14.6h13.05Z"/>
        <path class="cls-1" d="M174.91,199.71l13.3,18.3h-7.93l-12.27-17.58h-1.17v17.58h-6.48v-42.95h7.59c5.68,0,9.77,1.07,12.3,3.2,2.78,2.37,4.17,5.51,4.17,9.4,0,3.04-.87,5.66-2.61,7.84-1.74,2.19-4.04,3.59-6.9,4.2ZM166.84,194.79h2.06c6.14,0,9.21-2.35,9.21-7.04,0-4.4-2.99-6.59-8.96-6.59h-2.31v13.63Z"/>
        <path class="cls-1" d="M232.04,181.15h-17.22v10.32h16.72v6.09h-16.72v14.35h17.22v6.09h-23.7v-42.95h23.7v6.09Z"/>
        <path class="cls-1" d="M254.22,218.01v-42.95h9.01c4.32,0,7.73.43,10.24,1.28,2.69.83,5.13,2.25,7.32,4.26,4.43,4.04,6.65,9.36,6.65,15.94s-2.31,11.94-6.93,16.02c-2.32,2.04-4.75,3.46-7.29,4.26-2.38.8-5.74,1.2-10.1,1.2h-8.9ZM260.7,211.92h2.92c2.91,0,5.33-.31,7.26-.92,1.93-.65,3.67-1.68,5.23-3.09,3.19-2.91,4.78-6.7,4.78-11.38s-1.58-8.53-4.73-11.46c-2.84-2.61-7.02-3.92-12.55-3.92h-2.92v30.77Z"/>
        <path class="cls-1" d="M16.96,259.71v17.44h-6.48v-42.95h7.34c3.6,0,6.32.25,8.15.75,1.85.5,3.49,1.45,4.9,2.84,2.47,2.41,3.7,5.45,3.7,9.12,0,3.93-1.32,7.05-3.95,9.35-2.63,2.3-6.19,3.45-10.65,3.45h-3ZM16.96,253.7h2.42c5.95,0,8.93-2.29,8.93-6.87s-3.07-6.65-9.21-6.65h-2.14v13.52Z"/>
        <path class="cls-1" d="M61.4,234.2v36.86h12.63v6.09h-19.11v-42.95h6.48Z"/>
        <path class="cls-1" d="M121.47,266.72h-18.39l-4.78,10.43h-6.98l21.25-45.65,20.5,45.65h-7.09l-4.51-10.43ZM118.83,260.62l-6.37-14.6-6.68,14.6h13.05Z"/>
        <path class="cls-1" d="M152.11,277.15v-45.87l31.32,32.77v-29.85h6.48v45.57l-31.32-32.69v30.07h-6.48Z"/>
        <path class="cls-1" d="M237.59,240.29h-17.22v10.32h16.72v6.09h-16.72v14.35h17.22v6.09h-23.7v-42.95h23.7v6.09Z"/>
        <path class="cls-1" d="M271.62,240.29v36.86h-6.48v-36.86h-9.88v-6.09h26.21v6.09h-9.85Z"/>
      </g>
      <g>
        <path class="cls-1" d="M102.5,99.94c11.02,9.81,25.38,15.31,40.44,15.5.52,0,1.04,0,1.56,0,13.11-.19,25.41-5.21,34.63-14.14.94-.91,1.82-1.84,2.67-2.8.17-.18.33-.37.49-.56.19-.21.37-.43.55-.65.02-.02.04-.04.04-.05.22-.27.44-.53.65-.81.02-.02.03-.04.04-.06.2-.24.38-.49.57-.74.05-.06.1-.12.14-.18.2-.26.39-.52.57-.79.19-.26.37-.52.55-.78.07-.1.14-.21.21-.31.15-.22.3-.45.44-.67.02-.03.04-.05.05-.07.18-.28.36-.57.54-.86.24-.39.47-.78.7-1.17.13-.23.26-.45.39-.68.35-.63.68-1.26.99-1.9.14-.27.27-.54.4-.82.03-.06.06-.12.08-.18.15-.31.29-.62.42-.93.14-.33.28-.65.42-.98.12-.28.23-.56.33-.84.04-.1.08-.2.11-.3.11-.28.22-.56.32-.85.12-.33.24-.67.35-1.01.11-.32.21-.65.31-.97.02-.05.03-.11.05-.17.09-.27.17-.55.24-.82.02-.07.04-.14.06-.2.08-.3.16-.59.24-.89.44-1.73.77-3.49,1.01-5.27.02-.17.04-.33.06-.5.03-.27.06-.54.09-.81,0-.03,0-.07,0-.1.03-.29.05-.57.08-.86.01-.17.03-.34.03-.51,0-.09.01-.17.02-.26,0-.05,0-.1,0-.14-2.58,8.94-7.77,17.05-15.09,23.37-9.48,8.2-21.74,12.71-34.54,12.71s-25.06-4.51-34.53-12.71c-9.41-8.13-15.32-19.23-16.65-31.23-.02-.19-.04-.37-.06-.56,0-.03,0-.05,0-.08-.04-.36-.06-.71-.09-1.07-.03-.38-.05-.77-.07-1.15v-.03c-.02-.34-.03-.67-.04-1.01,0-.1,0-.21,0-.32,0-.33-.01-.66-.01-.99,0-12.99,5.26-25.25,14.81-34.5,9.54-9.24,22.27-14.44,35.85-14.64.54,0,1.08,0,1.61,0,15.5.18,30.28,5.85,41.61,15.95.3.26.59.53.88.8.16.14.31.29.47.44.18.16.35.33.53.51.1.1.21.2.31.3.23.22.46.45.68.68.43.43.85.88,1.27,1.32.26.28.51.55.76.83.06.06.11.12.16.18.24.26.47.53.69.79.35.41.69.81,1.03,1.23.28.34.55.68.81,1.03.22.28.45.57.66.86.14.18.28.36.41.55.21.28.42.57.62.86.24.33.47.67.7,1.02.2.3.39.59.59.89.18.27.35.55.52.82.17.27.34.54.5.81.11.18.21.35.31.53.29.49.57.99.85,1.49.12.23.24.45.36.68.08.15.17.3.24.46.13.25.26.5.38.74.16.32.31.64.47.95.05.1.1.2.14.3.13.26.25.52.36.79.13.29.26.59.39.88.14.31.27.63.4.94.14.33.27.65.39.98.26.66.5,1.32.73,1.98.1.27.19.54.28.82.04.12.08.23.12.36.07.23.14.45.21.68.23.73.44,1.46.64,2.2C201.57,23.49,175.47,0,143.72,0c-33.33,0-60.45,25.89-60.45,57.72,0,1.69.08,3.39.23,5.05,1.29,14.2,8.04,27.4,19,37.17Z"/>
        <path class="cls-1" d="M198.06,44.18c-3.22-6.29-7.64-12.03-13.13-16.92-11.02-9.81-25.38-15.32-40.44-15.5-.52,0-1.04,0-1.56,0-13.11.19-25.41,5.21-34.63,14.14-.94.91-1.83,1.84-2.67,2.8-.17.19-.34.38-.5.58-.08.09-.16.18-.24.28-.2.23-.39.46-.57.69-.03.04-.06.08-.09.12-.18.21-.34.43-.51.64-.16.2-.31.41-.46.61-.03.03-.05.06-.07.1-.15.2-.31.41-.46.62-.19.26-.37.52-.55.78-.17.23-.32.47-.48.7-.1.15-.2.3-.3.45-.18.28-.35.55-.52.83-.2.32-.39.64-.58.97-.38.65-.74,1.3-1.09,1.97-.16.32-.32.64-.48.95-.1.2-.2.41-.29.61-.23.48-.45.96-.66,1.44-.1.21-.18.43-.27.64-.05.11-.1.23-.14.34-.08.2-.16.39-.24.59-.07.19-.15.38-.22.57-.1.27-.2.54-.29.81-.11.3-.21.61-.32.91-.1.29-.19.59-.28.89-.05.15-.09.31-.14.46-.06.2-.12.4-.17.59-.02.07-.04.14-.06.21-.17.6-.32,1.21-.46,1.82-.03.14-.07.28-.1.43-.13.59-.25,1.19-.36,1.79-.06.35-.12.7-.18,1.06-.06.35-.11.71-.15,1.06-.03.23-.06.46-.08.68-.03.19-.05.38-.07.57-.03.3-.06.61-.08.91-.03.28-.05.55-.06.83,0,.07-.01.13-.01.2,6.03-21,26.16-36.06,49.62-36.06,12.8,0,25.06,4.51,34.54,12.71,7.81,6.75,13.47,15.48,15.57,25.19.32,1.5.85,4.52,1.07,6.03.25,1.7.29,3.46.29,5.21,0,12.99-5.26,25.25-14.81,34.5-9.54,9.25-22.27,14.44-35.85,14.64-.27,0-.54,0-.81,0s-.54,0-.81,0c-15.49-.19-30.27-5.85-41.61-15.95-.3-.26-.59-.53-.88-.8-.16-.14-.31-.29-.47-.44-.16-.14-.31-.29-.46-.44-.17-.17-.35-.33-.52-.51-.54-.53-1.07-1.08-1.59-1.63-.19-.21-.39-.42-.58-.63-.08-.08-.15-.17-.23-.25-.17-.18-.33-.37-.5-.56-.11-.13-.22-.25-.32-.38-.18-.2-.35-.41-.52-.61-.31-.36-.61-.73-.9-1.09-.2-.25-.4-.5-.59-.75-.19-.24-.37-.48-.55-.72-.19-.24-.37-.49-.55-.74-.21-.28-.41-.56-.6-.84-.2-.28-.39-.55-.57-.83-.04-.06-.08-.13-.13-.19-.2-.29-.39-.59-.59-.89-.18-.27-.35-.55-.52-.82-.17-.27-.33-.54-.5-.81-.1-.18-.21-.35-.31-.53-.29-.49-.57-.99-.85-1.49-.12-.23-.25-.46-.36-.68-.09-.16-.17-.33-.26-.49-.1-.19-.2-.38-.29-.57-.05-.1-.11-.2-.16-.31-.24-.47-.46-.95-.69-1.43-.2-.44-.4-.88-.59-1.32-.11-.25-.21-.5-.32-.75l-.41-1c-.15-.38-.29-.76-.43-1.14-.14-.38-.27-.75-.4-1.13-.07-.21-.14-.42-.21-.63-.05-.14-.1-.28-.14-.43-.08-.25-.17-.51-.24-.76-.02-.07-.04-.13-.06-.19-.09-.3-.18-.6-.27-.9-.1-.34-.19-.68-.28-1.02,2.41,29.74,28.52,53.23,60.26,53.23,33.33,0,60.45-25.89,60.45-57.72,0-1.69-.08-3.39-.23-5.05-.64-7.1-2.65-13.95-5.87-20.25Z"/>
      </g>
    </g>
  </g>
</svg>